:SAMPLES-PER-SECOND 30
:FULLY-SPECIFIED
:DEGREES
213
root  1.55325 19.2016 -24.622 51.0231 0.49244 -9.4172
RightUpLeg  -69.2805 0.857298 17.1708
RightLeg  126.239 23.3273 -9.93581
RightFoot  -28.3976 -1.06228 -8.62381
RightToes  5.82077e-011 -3.18055e-015 -2.98177e-016
Spine  46.4627 3.36952 8.43849
Spine1  -12.148 5.86842 13.1391
HEad  -22.4443 -3.39948 -6.78531
LeftShoulder1  -3.88251e-019 9.70628e-020 -3.87848e-018
LeftArm  -1.49684 -35.4471 -61.2092
LeftForeArm  -2.05099 -7.84587 -1.49178
LeftHand  -7.56882 -9.06184 57.5387
RightShoulder  5.12089 10.0179 23.7498
RightArm  8.62499 4.95874 55.0603
RightForeArm  33.0811 14.0268 -4.40276
RightHand  -14.7773 11.6175 -82.7117
LeftUpLeg  -33.2441 -0.413845 -6.26147
LeftLeg  87.9221 -14.7062 24.7472
LeftFoot  -16.6174 -0.476085 -13.9327
LeftToes  9.37148e-011 4.50685e-012 -4.11107e-011
214
root  1.5431 19.0571 -23.9979 50.9149 1.1468 -8.85915
RightUpLeg  -71.705 1.42238 18.8044
RightLeg  123.597 25.3481 -13.4378
RightFoot  -20.6725 -0.379931 -6.68525
RightToes  5.82077e-011 -3.18055e-015 -2.98177e-016
Spine  45.7168 3.66725 8.86349
Spine1  -12.1884 6.29779 13.3559
HEad  -22.557 -5.29377 -7.24747
LeftShoulder1  -3.88251e-019 9.70628e-020 -3.87848e-018
LeftArm  -0.727187 -34.3823 -64.4023
LeftForeArm  -0.983739 -8.36218 -1.98513
LeftHand  -7.89713 -9.23489 59.004
RightShoulder  5.19288 9.99828 24.1879
RightArm  8.4116 3.1816 52.2733
RightForeArm  33.3457 13.9115 -4.08313
RightHand  -14.9973 11.6459 -83.4694
LeftUpLeg  -31.0361 -1.41674 -5.95054
LeftLeg  86.0144 -13.8566 24.3666
LeftFoot  -16.7733 -0.465311 -13.0417
LeftToes  9.37148e-011 4.50685e-012 -4.11107e-011
215
root  1.48716 18.9327 -23.3597 51.0856 2.5593 -8.28352
RightUpLeg  -71.7489 1.67883 20.3302
RightLeg  120.183 27.246 -17.5755
RightFoot  -13.961 0.0231194 -4.28246
RightToes  5.82077e-011 -3.18055e-015 -2.98177e-016
Spine  44.5075 3.76333 9.81612
Spine1  -11.6832 6.64729 13.6222
HEad  -23.2448 -7.37486 -7.06021
LeftShoulder1  -3.88251e-019 9.70628e-020 -3.87848e-018
LeftArm  -0.230441 -33.7413 -67.8028
LeftForeArm  0.64573 -8.72804 -2.4248
LeftHand  -8.39469 -9.49755 61.1226
RightShoulder  5.46573 10.0952 25.5239
RightArm  9.66296 1.23534 48.5067
RightForeArm  32.1984 15.0462 -4.66017
RightHand  -14.9613 11.5906 -83.5182
LeftUpLeg  -28.9833 -2.9381 -4.80517
LeftLeg  83.8022 -12.8997 23.7404
LeftFoot  -17.4138 -0.482722 -11.5015
LeftToes  9.37148e-011 4.50685e-012 -4.11107e-011
216
root  1.39981 18.8493 -22.6944 52.1471 3.99322 -8.22287
RightUpLeg  -70.6525 2.00157 21.2284
RightLeg  118.036 27.3176 -18.9218
RightFoot  -11.7529 0.0804576 -3.40607
RightToes  5.82077e-011 -3.18055e-015 -2.98177e-016
Spine  42.8655 3.93366 11.0851
Spine1  -11.2518 7.11559 13.1695
HEad  -23.9288 -9.23093 -6.59631
LeftShoulder1  -3.88251e-019 9.70628e-020 -3.87848e-018
LeftArm  0.762688 -33.3634 -70.9245
LeftForeArm  2.11076 -8.67893 -3.13552
LeftHand  -9.02457 -9.84199 63.6134
RightShoulder  5.74265 10.1853 26.8744
RightArm  13.6847 -1.04956 44.6212
RightForeArm  27.6631 16.999 -6.02806
RightHand  -14.3907 11.4977 -81.5774
LeftUpLeg  -28.0545 -3.77976 -3.13752
LeftLeg  81.4185 -11.9248 23.139
LeftFoot  -17.4322 -0.424754 -9.9311
LeftToes  9.37148e-011 4.50685e-012 -4.11107e-011
217
root  1.36163 18.8075 -21.9352 53.4462 4.86854 -9.24089
RightUpLeg  -68.9978 2.22685 21.5891
RightLeg  117.153 25.5653 -16.891
RightFoot  -12.1172 0.0790785 -4.41326
RightToes  5.82077e-011 -3.18055e-015 -2.98177e-016
Spine  41.5904 3.8707 12.924
Spine1  -11.1966 7.73608 10.6934
HEad  -24.0744 -10.3235 -6.59319
LeftShoulder1  -3.88251e-019 9.70628e-020 -3.87848e-018
LeftArm  1.89042 -32.9706 -72.9101
LeftForeArm  3.48395 -8.44648 -4.15896
LeftHand  -9.53845 -10.1183 65.5301
RightShoulder  5.79286 10.1776 27.1618
RightArm  21.384 -4.83649 41.5962
RightForeArm  18.6108 20.2035 -9.52358
RightHand  -13.2856 11.4346 -77.238
LeftUpLeg  -27.5199 -2.73108 -1.29798
LeftLeg  78.9763 -10.9819 22.4971
LeftFoot  -17.0165 -0.411794 -10.6404
LeftToes  9.37148e-011 4.50685e-012 -4.11107e-011
218
root  1.31889 18.7427 -21.1165 54.8986 4.76329 -10.9835
RightUpLeg  -67.6562 2.62168 21.6371
RightLeg  116.362 23.444 -13.9989
RightFoot  -11.7273 0.102308 -5.29107
RightToes  5.82077e-011 -3.18055e-015 -2.98177e-016
Spine  39.9931 4.16665 13.738
Spine1  -10.7915 8.34817 7.92525
HEad  -23.8987 -10.3235 -7.35536
LeftShoulder1  -3.88251e-019 9.70628e-020 -3.87848e-018
LeftArm  1.6695 -32.1354 -73.5347
LeftForeArm  5.61769 -8.19079 -4.79869
LeftHand  -9.89429 -10.2874 66.8664
RightShoulder  5.72505 10.1281 26.8881
RightArm  26.0152 -9.88713 39.2473
RightForeArm  12.8175 25.5062 -14.4421
RightHand  -12.2091 11.3985 -72.6776
LeftUpLeg  -27.1663 0.23144 0.162935
LeftLeg  76.7712 -10.2125 21.6262
LeftFoot  -16.3605 -0.416351 -13.0231
LeftToes  9.37148e-011 4.50685e-012 -4.11107e-011
219
root  1.18474 18.74 -20.38 56.0081 4.52051 -10.6533
RightUpLeg  -66.2444 1.59572 20.536
RightLeg  115.493 21.7648 -11.56
RightFoot  -11.7634 0.0916029 -4.26248
RightToes  5.82077e-011 -3.18055e-015 -2.98177e-016
Spine  38.432 4.4109 11.9235
Spine1  -10.3066 7.7895 8.07464
HEad  -23.8647 -9.58363 -8.20213
LeftShoulder1  -3.88251e-019 9.70628e-020 -3.87848e-018
LeftArm  -0.0568659 -30.6316 -73.2863
LeftForeArm  8.25206 -8.15978 -4.69282
LeftHand  -10.2255 -10.4775 67.9568
RightShoulder  5.77086 10.1255 27.1431
RightArm  23.9001 -14.2724 36.8475
RightForeArm  13.9093 33.1671 -18.6799
RightHand  -11.7012 11.3828 -70.3979
LeftUpLeg  -27.3497 1.65267 0.269552
LeftLeg  75.4926 -9.89026 20.5228
LeftFoot  -14.2907 -0.192824 -15.6038
LeftToes  9.37148e-011 4.50685e-012 -4.11107e-011
220
root  0.92449 18.8738 -19.7534 57.0755 4.9356 -8.60714
RightUpLeg  -64.6098 0.137307 19.1033
RightLeg  114.216 20.3157 -9.40778
RightFoot  -13.6871 0.0305429 -2.65857
RightToes  5.82077e-011 -3.18055e-015 -2.98177e-016
Spine  36.9089 4.57938 8.51041
Spine1  -10.1096 6.40763 10.9036
HEad  -23.9868 -8.82362 -8.04591
LeftShoulder1  -3.88251e-019 9.70628e-020 -3.87848e-018
LeftArm  -1.72947 -28.9722 -72.8211
LeftForeArm  10.3364 -8.30389 -4.45855
LeftHand  -10.5402 -10.7289 68.7152
RightShoulder  5.86437 10.1323 27.6405
RightArm  21.8983 -16.9394 34.9344
RightForeArm  12.1924 40.9692 -24.2085
RightHand  -11.5435 11.3461 -69.773
LeftUpLeg  -29.389 1.14173 0.206088
LeftLeg  76.0366 -10.2921 19.1345
LeftFoot  -9.38585 0.48258 -16.3416
LeftToes  9.37148e-011 4.50685e-012 -4.11107e-011
221
root  0.647733 19.1342 -19.1842 57.4075 6.27073 -6.39673
RightUpLeg  -62.0967 -1.1808 18.2888
RightLeg  112.272 18.9899 -7.39078
RightFoot  -16.0199 -0.00854662 -2.31568
RightToes  5.82077e-011 -3.18055e-015 -2.98177e-016
Spine  36.7024 4.07886 6.22524
Spine1  -10.6808 4.92082 13.2764
HEad  -24.1436 -8.3858 -6.65854
LeftShoulder1  -3.88251e-019 9.70628e-020 -3.87848e-018
LeftArm  -2.55151 -27.8313 -72.5888
LeftForeArm  11.9495 -7.99443 -4.57681
LeftHand  -10.8046 -10.9497 69.2956
RightShoulder  5.77954 10.0383 27.3608
RightArm  19.3918 -17.8389 34.6602
RightForeArm  7.21747 47.5802 -30.2255
RightHand  -11.2132 11.2724 -68.4391
LeftUpLeg  -32.5791 0.0104726 0.965298
LeftLeg  78.4127 -11.2137 17.9581
LeftFoot  -2.62499 1.2061 -13.1859
LeftToes  9.37148e-011 4.50685e-012 -4.11107e-011
222
root  0.451697 19.4442 -18.618 56.443 7.6981 -4.23813
RightUpLeg  -58.5783 -2.93571 17.5068
RightLeg  110.066 18.0929 -5.99637
RightFoot  -17.0394 -0.0330778 -2.59787
RightToes  5.82077e-011 -3.18055e-015 -2.98177e-016
Spine  38.3134 2.84855 5.4335
Spine1  -11.7326 3.51776 13.6249
HEad  -24.5073 -8.28633 -4.89108
LeftShoulder1  -3.88251e-019 9.70628e-020 -3.87848e-018
LeftArm  -3.0512 -27.2295 -72.8967
LeftForeArm  13.8669 -7.12214 -4.73686
LeftHand  -11.1302 -11.17 70.1555
RightShoulder  5.49233 9.81263 26.213
RightArm  15.8628 -16.5732 36.2447
RightForeArm  2.2906 51.9276 -35.334
RightHand  -10.5787 11.1438 -65.7565
LeftUpLeg  -35.3004 -1.02348 1.47006
LeftLeg  82.0244 -12.3401 17.7956
LeftFoot  0.70207 1.32901 -10.8742
LeftToes  9.37148e-011 4.50685e-012 -4.11107e-011
223
root  0.317391 19.6874 -18.1105 55.0319 8.15148 -1.72957
RightUpLeg  -55.2283 -5.21678 15.8872
RightLeg  108.524 17.6979 -5.39658
RightFoot  -17.5804 -0.0112952 -1.78889
RightToes  5.82077e-011 -3.18055e-015 -2.98177e-016
Spine  40.4338 1.65539 4.52507
Spine1  -12.6186 2.20301 12.8861
HEad  -25.1851 -8.62609 -3.46833
LeftShoulder1  -3.88251e-019 9.70628e-020 -3.87848e-018
LeftArm  -3.3718 -26.7793 -73.593
LeftForeArm  15.9211 -6.50563 -4.80801
LeftHand  -11.5891 -11.5382 71.1282
RightShoulder  5.12353 9.50627 24.7181
RightArm  11.439 -12.625 38.7357
RightForeArm  0.105629 53.8085 -37.9781
RightHand  -9.79957 10.8279 -62.788
LeftUpLeg  -37.6187 -1.87997 0.318059
LeftLeg  86.5917 -13.756 18.8186
LeftFoot  -0.960153 1.08962 -10.2755
LeftToes  9.37148e-011 4.50685e-012 -4.11107e-011
